<?xml version="1.0" encoding="UTF-8"?>
<svg width="50px" height="45px" viewBox="0 0 50 45" version="1.1" xmlns="http://www.w3.org/2000/svg" xmlns:xlink="http://www.w3.org/1999/xlink" xmlns:sketch="http://www.bohemiancoding.com/sketch/ns">
    <!-- Generator: Sketch 3.3.1 (12002) - http://www.bohemiancoding.com/sketch -->
    <title>steam</title>
    <desc>Created with Sketch.</desc>
    <defs></defs>
    <g id="Page-1" stroke="none" stroke-width="1" fill="none" fill-rule="evenodd" sketch:type="MSPage">
        <g id="steam" sketch:type="MSLayerGroup" fill="#FFFFFF">
            <path d="M34.3388132,10.9427043 C34.3388132,13.5214981 36.4291829,15.611965 39.0080739,15.611965 C41.5868677,15.611965 43.6773346,13.5214981 43.6773346,10.9427043 C43.6773346,8.36391051 41.5868677,6.27344358 39.0080739,6.27344358 C36.4291829,6.27344358 34.3388132,8.36391051 34.3388132,10.9427043 L34.3388132,10.9427043 Z M46.7118677,3.23881323 C42.4571984,-1.01585603 35.5589494,-1.01585603 31.3038911,3.23881323 C29.5734436,4.9692607 28.5467899,7.13696498 28.2241245,9.38628405 L28.2241245,9.38628405 L18.2681907,24.4751946 C16.9303502,24.5435798 15.6039883,24.8845331 14.3787938,25.4973735 L6.69922179,19.4942607 C4.92149805,18.1044747 2.35379377,18.4192607 0.964202335,20.1969844 C-0.425486381,21.9747082 -0.110797665,24.5424125 1.66692607,25.9321012 L9.25126459,31.8607004 C8.42636187,35.1088521 9.28394942,38.6962062 11.8256809,41.2377432 C15.6635214,45.0754864 21.8856031,45.0754864 25.7234436,41.2377432 C28.080642,38.880642 28.9893969,35.6235409 28.4509728,32.5720817 L40.5644942,21.7266537 L40.5642996,21.7265564 C42.813716,21.4036965 44.9814202,20.3771401 46.7118677,18.6466926 C50.9667315,14.3919261 50.9667315,7.49357977 46.7118677,3.23881323 L46.7118677,3.23881323 Z M18.7745136,40.8404669 C15.156323,40.8404669 12.2230545,37.9075875 12.2230545,34.2890078 C12.2230545,34.2544747 12.2250973,34.2202335 12.2256809,34.1857004 L15.4801556,36.7296693 C16.2272374,37.3136187 17.1135214,37.5965953 17.9934825,37.5965953 C19.2075875,37.5965953 20.4094358,37.0576848 21.2151751,36.0269455 C22.6048638,34.2492218 22.2901751,31.6814202 20.5124514,30.2919261 L17.42393,27.8777237 C17.8598249,27.7863813 18.3114786,27.7377432 18.7745136,27.7377432 C22.3928016,27.7377432 25.3261673,30.6708171 25.3261673,34.2892996 C25.3261673,37.9074903 22.3928016,40.8404669 18.7745136,40.8404669 L18.7745136,40.8404669 Z M39.0080739,18.7248054 C34.7100195,18.7248054 31.2259728,15.2406615 31.2259728,10.9427043 C31.2259728,6.64474708 34.7100195,3.16060311 39.0080739,3.16060311 C43.3060311,3.16060311 46.7901751,6.64474708 46.7901751,10.9427043 C46.7901751,15.2406615 43.3060311,18.7248054 39.0080739,18.7248054 L39.0080739,18.7248054 Z" id="Shape" sketch:type="MSShapeGroup"></path>
        </g>
    </g>
</svg>