<?xml version="1.0" encoding="UTF-8"?>
<svg width="58px" height="60px" viewBox="0 0 58 60" version="1.1" xmlns="http://www.w3.org/2000/svg" xmlns:xlink="http://www.w3.org/1999/xlink" xmlns:sketch="http://www.bohemiancoding.com/sketch/ns">
    <!-- Generator: Sketch 3.3.1 (12002) - http://www.bohemiancoding.com/sketch -->
    <title>Glitch_White_RGB</title>
    <desc>Created with Sketch.</desc>
    <defs></defs>
    <g id="Page-1" stroke="none" stroke-width="1" fill="none" fill-rule="evenodd" sketch:type="MSPage">
        <g id="Glitch_White_RGB" sketch:type="MSLayerGroup" fill="#FFFFFF">
            <path d="M4.02985075,0 L0,10.2985075 L0,52.3880597 L14.3283582,52.3880597 L14.3283582,60 L22.3880597,60 L30,52.3880597 L41.641791,52.3880597 L57.3134328,36.7164179 L57.3134328,0 L4.02985075,0 L4.02985075,0 Z M51.9402985,34.0298507 L42.9850746,42.9850746 L28.6567164,42.9850746 L21.0447761,50.5970149 L21.0447761,42.9850746 L8.95522388,42.9850746 L8.95522388,5.37313433 L51.9402985,5.37313433 L51.9402985,34.0298507 L51.9402985,34.0298507 Z M42.9850746,15.6716418 L42.9850746,31.3432836 L37.6119403,31.3432836 L37.6119403,15.6716418 L42.9850746,15.6716418 L42.9850746,15.6716418 Z M28.6567164,15.6716418 L28.6567164,31.3432836 L23.2835821,31.3432836 L23.2835821,15.6716418 L28.6567164,15.6716418 L28.6567164,15.6716418 Z" id="Shape" sketch:type="MSShapeGroup"></path>
        </g>
    </g>
</svg>