<?xml version="1.0" encoding="UTF-8"?>
<svg width="88px" height="50px" viewBox="0 0 88 50" version="1.1" xmlns="http://www.w3.org/2000/svg" xmlns:xlink="http://www.w3.org/1999/xlink" xmlns:sketch="http://www.bohemiancoding.com/sketch/ns">
    <!-- Generator: Sketch 3.3.1 (12002) - http://www.bohemiancoding.com/sketch -->
    <title>vk-social-network-logo</title>
    <desc>Created with Sketch.</desc>
    <defs></defs>
    <g id="Page-1" stroke="none" stroke-width="1" fill="none" fill-rule="evenodd" sketch:type="MSPage">
        <g id="vk-social-network-logo" sketch:type="MSLayerGroup" fill="#FFFFFF">
            <path d="M86.8548733,45.1109483 C86.7491412,44.8830831 86.6505748,44.6940712 86.5590147,44.5426387 C85.0440532,41.8141475 82.1490022,38.4651177 77.8756133,34.4945937 L77.7853271,34.4036705 L77.7401044,34.3590847 L77.6944039,34.3133843 L77.6485443,34.3133843 C75.7090623,32.4645071 74.480883,31.2213597 73.9665541,30.5848975 C73.0254754,29.3724824 72.8146483,28.1452585 73.3289773,26.9017927 C73.6923515,25.9623063 75.0573136,23.9782386 77.420679,20.9468825 C78.6638264,19.3403609 79.6483763,18.0527869 80.3754431,17.0827275 C85.6192099,10.1114206 87.8926076,5.65666305 87.1951584,3.71670342 L86.9242997,3.26336146 C86.7422941,2.99043272 86.272551,2.74075229 85.5157072,2.51304629 C84.7571118,2.28581798 83.78753,2.24823853 82.6052104,2.39967099 L69.5122743,2.49011645 C69.3001733,2.41495755 68.9973084,2.42196388 68.6027241,2.51304629 C68.2086176,2.60412869 68.0114847,2.64982912 68.0114847,2.64982912 L67.7836195,2.76368213 L67.6027285,2.90046497 C67.4511368,2.99091043 67.2844178,3.14998616 67.1024123,3.3773737 C66.9213621,3.60396506 66.7699296,3.86988746 66.6489111,4.17291161 C65.2234396,7.84025219 63.6027461,11.2499506 61.783805,14.4018476 C60.6623132,16.2812979 59.6323814,17.9101124 58.6917804,19.2892465 C57.7524533,20.6679028 56.9643995,21.6836627 56.328415,22.3347745 C55.6914751,22.9865232 55.1166369,23.5086547 54.6003971,23.9030797 C54.0849535,24.297664 53.6914839,24.464383 53.4190329,24.403396 C53.1459449,24.342409 52.8887804,24.2818997 52.6453102,24.2213904 C52.2212674,23.9484617 51.8801861,23.577285 51.6230217,23.1075418 C51.3647425,22.6377987 51.1908579,22.0465592 51.0999348,21.3343012 C51.0094893,20.6215655 50.9559864,20.0085108 50.9406998,19.4930672 C50.9265279,18.9782606 50.9330565,18.2500791 50.9637889,17.3105928 C50.9953174,16.3706287 51.0094893,15.7346443 51.0094893,15.4012062 C51.0094893,14.2493005 51.0319414,12.9991467 51.0770049,11.6504265 C51.1228646,10.3017063 51.1599664,9.23308046 51.1910172,8.44582277 C51.2219088,7.65776891 51.2362399,6.82401461 51.2362399,5.94503758 C51.2362399,5.06606055 51.182737,4.37673237 51.0770049,3.87641609 C50.9725468,3.37673676 50.8121972,2.89170704 50.6008924,2.42148618 C50.3883137,1.95174302 50.0771686,1.58836882 49.6688901,1.33040817 C49.2598155,1.07276599 48.751219,0.868308288 48.1459669,0.716398127 C46.5394453,0.352864692 44.4937536,0.156209505 42.0079365,0.125636391 C36.3708593,0.0651271025 32.7487415,0.429138242 31.1423791,1.21719211 C30.505917,1.55015243 29.9299641,2.00508673 29.4149982,2.58056191 C28.8692999,3.2475972 28.7931856,3.61160834 29.1871329,3.67148069 C31.0059148,3.94393172 32.2934887,4.59568045 33.0512879,5.62608994 L33.3243759,6.17210665 C33.5367954,6.56605396 33.7488963,7.26350313 33.9611566,8.26349873 C34.1730983,9.26349434 34.3098811,10.3696997 34.370072,11.5814778 C34.5213452,13.7943662 34.5213452,15.6886254 34.370072,17.2644146 C34.218321,18.8408408 34.0750096,20.0680647 33.9382267,20.9470417 C33.8014439,21.8260188 33.5969862,22.5382768 33.3243759,23.0836566 C33.0512879,23.6291956 32.8696008,23.9626336 32.7785184,24.0836522 C32.6875953,24.2046707 32.6117994,24.2809443 32.5516086,24.3108805 C32.1576613,24.4618352 31.7479497,24.5387457 31.323907,24.5387457 C30.8992273,24.5387457 30.3842614,24.3263263 29.7782131,23.9018058 C29.1723241,23.4772854 28.5435052,22.894167 27.8917565,22.1514951 C27.2400077,21.4086639 26.5049791,20.3706112 25.6863521,19.0371775 C24.8683621,17.7037439 24.0196397,16.1277954 23.1406627,14.3093321 L22.4134366,12.990548 C21.9588207,12.1421441 21.3378044,10.9067992 20.5497505,9.285628 C19.7612189,7.66381984 19.0642475,6.09503692 18.4583584,4.57959772 C18.216162,3.94313555 17.8523101,3.45858353 17.3674396,3.12514551 L17.1398929,2.98836267 C16.9886196,2.86734409 16.7457863,2.73884147 16.4126668,2.6018994 C16.0790695,2.46511656 15.7309819,2.36702782 15.3669707,2.30667777 L2.9101783,2.39712323 C1.63725395,2.39712323 0.773563481,2.68549776 0.318788409,3.26145064 L0.136782839,3.53390167 C0.0458596712,3.6856526 0,3.92800822 0,4.26160548 C0,4.59504351 0.0909231675,5.00427738 0.272928737,5.48882939 C2.09139209,9.76269597 4.06893117,13.8844932 6.20554599,17.8548579 C8.34216081,21.8252226 10.1988406,25.023457 11.7744706,27.4466947 C13.3504191,29.8716841 14.9567814,32.1603683 16.5935577,34.3116327 C18.2303339,36.4636933 19.3137687,37.8428274 19.8438619,38.4487165 C20.374592,39.0557202 20.7914692,39.5095398 21.0944933,39.812564 L22.2312718,40.9034827 C22.9586571,41.6310273 24.0268053,42.5023611 25.436194,43.517484 C26.8459012,44.5332439 28.4065631,45.5332395 30.118976,46.5190632 C31.8317073,47.5032945 33.8242145,48.3064757 36.0976121,48.9276513 C38.3706913,49.5494639 40.583102,49.7989851 42.7351626,49.6786034 L47.9634836,49.6786034 C49.0238292,49.5870433 49.8271697,49.2536053 50.3731864,48.6781301 L50.5540773,48.4502649 C50.6757328,48.269374 50.7895858,47.9883242 50.8946809,47.6101412 C51.0010499,47.2313212 51.0539159,46.8139663 51.0539159,46.3599874 C51.0228651,45.0569677 51.1220684,43.8826098 51.348819,42.837073 C51.5754104,41.7918546 51.8336895,41.0038008 52.1225417,40.4730706 C52.4112347,39.9428182 52.7370295,39.4953679 53.0996075,39.1326307 C53.4629817,38.7690972 53.7218978,38.5488753 53.8738079,38.4730794 C54.0247627,38.3968059 54.1453036,38.3450545 54.2362267,38.3140037 C54.9636121,38.0716481 55.8196593,38.3063604 56.8056422,39.0192554 C57.790829,39.7315134 58.7148695,40.6109681 59.5791969,41.6561864 C60.4430466,42.7023602 61.4809401,43.8760812 62.6930367,45.1791009 C63.9059295,46.4825984 64.9664344,47.4515432 65.8753476,48.0889607 L66.7842608,48.6344997 C67.3912645,48.9985109 68.1793184,49.3319489 69.1493778,49.6349731 C70.1176856,49.937838 70.9660896,50.0136338 71.6945895,49.8622014 L83.3325957,49.6806735 C84.4837053,49.6806735 85.379402,49.4900692 86.0147496,49.1118862 C86.651371,48.7330662 87.029554,48.3157113 87.151528,47.8617324 C87.2731835,47.4072758 87.2797122,46.891673 87.1746171,46.3152424 C87.066815,45.7402449 86.9606053,45.3381766 86.8548733,45.1109483 L86.8548733,45.1109483 Z" id="Shape" sketch:type="MSShapeGroup"></path>
        </g>
    </g>
</svg>